<?xml version="1.0" encoding="UTF-8"?>
<svg xmlns="http://www.w3.org/2000/svg" xmlns:xlink="http://www.w3.org/1999/xlink" viewBox="0 0 24 24" width="24px" height="24px">
<g id="surface12201648">
<path style=" stroke:none;fill-rule:nonzero;fill:rgb(94.509804%,94.509804%,94.509804%);fill-opacity:1;" d="M 5.75 3 C 4.238281 3 3 4.238281 3 5.75 L 3 18.25 C 3 19.761719 4.238281 21 5.75 21 L 18.25 21 C 19.761719 21 21 19.761719 21 18.25 L 21 5.75 C 21 4.238281 19.761719 3 18.25 3 Z M 5.75 4.5 L 18.25 4.5 C 18.949219 4.5 19.5 5.050781 19.5 5.75 L 19.5 18.25 C 19.5 18.949219 18.949219 19.5 18.25 19.5 L 15 19.5 L 15 14.5 L 16.8125 14.5 C 17.066406 14.5 17.277344 14.3125 17.308594 14.0625 L 17.496094 12.5625 C 17.515625 12.417969 17.46875 12.277344 17.375 12.167969 C 17.28125 12.0625 17.144531 12 17 12 L 15 12 L 15 10.25 C 15 9.699219 15.449219 9.25 16 9.25 L 17 9.25 C 17.277344 9.25 17.5 9.027344 17.5 8.75 L 17.5 7.0625 C 17.5 6.804688 17.300781 6.585938 17.042969 6.5625 C 17.015625 6.5625 16.308594 6.5 15.417969 6.5 C 13.214844 6.5 12 7.808594 12 10.183594 L 12 12 L 10 12 C 9.722656 12 9.5 12.222656 9.5 12.5 L 9.5 14 C 9.5 14.277344 9.722656 14.5 10 14.5 L 12 14.5 L 12 19.5 L 5.75 19.5 C 5.050781 19.5 4.5 18.949219 4.5 18.25 L 4.5 5.75 C 4.5 5.050781 5.050781 4.5 5.75 4.5 Z M 5.75 4.5 "/>
</g>
</svg>
