<?xml version="1.0" encoding="UTF-8"?>
<svg xmlns="http://www.w3.org/2000/svg" xmlns:xlink="http://www.w3.org/1999/xlink" viewBox="0 0 50 50" width="50px" height="50px">
<g id="surface13248909">
<path style=" stroke:none;fill-rule:nonzero;fill:rgb(94.509804%,94.509804%,94.509804%);fill-opacity:1;" d="M 35.417969 6.25 L 14.582031 6.25 C 9.980469 6.25 6.25 9.980469 6.25 14.582031 L 6.25 35.417969 C 6.25 40.019531 9.980469 43.75 14.582031 43.75 L 26.292969 43.75 L 26.292969 29.246094 L 21.414062 29.246094 L 21.414062 23.570312 L 26.292969 23.570312 L 26.292969 19.394531 C 26.292969 14.550781 29.253906 11.914062 33.574219 11.914062 C 35.03125 11.910156 36.484375 11.984375 37.933594 12.132812 L 37.933594 17.195312 L 34.957031 17.195312 C 32.605469 17.195312 32.144531 18.304688 32.144531 19.949219 L 32.144531 23.5625 L 37.769531 23.5625 L 37.039062 29.238281 L 32.113281 29.238281 L 32.113281 43.75 L 35.417969 43.75 C 40.019531 43.75 43.75 40.019531 43.75 35.417969 L 43.75 14.582031 C 43.75 9.980469 40.019531 6.25 35.417969 6.25 Z M 35.417969 6.25 "/>
</g>
</svg>
