<?xml version="1.0" encoding="UTF-8"?>
<svg xmlns="http://www.w3.org/2000/svg" xmlns:xlink="http://www.w3.org/1999/xlink" viewBox="0 0 50 50" width="50px" height="50px">
<g id="surface13468910">
<path style=" stroke:none;fill-rule:nonzero;fill:rgb(94.509804%,94.509804%,94.509804%);fill-opacity:1;" d="M 40 6.667969 L 10 6.667969 C 8.160156 6.667969 6.667969 8.160156 6.667969 10 L 6.667969 40 C 6.667969 41.839844 8.160156 43.332031 10 43.332031 L 40 43.332031 C 41.839844 43.332031 43.332031 41.839844 43.332031 40 L 43.332031 10 C 43.332031 8.160156 41.839844 6.667969 40 6.667969 Z M 18.257812 36.667969 L 13.339844 36.667969 L 13.339844 20.847656 L 18.257812 20.847656 Z M 15.75 18.585938 C 14.164062 18.585938 12.882812 17.300781 12.882812 15.71875 C 12.882812 14.136719 14.164062 12.851562 15.75 12.851562 C 17.328125 12.851562 18.613281 14.136719 18.613281 15.71875 C 18.613281 17.300781 17.328125 18.585938 15.75 18.585938 Z M 36.671875 36.667969 L 31.761719 36.667969 L 31.761719 28.972656 C 31.761719 27.136719 31.726562 24.777344 29.203125 24.777344 C 26.648438 24.777344 26.253906 26.777344 26.253906 28.839844 L 26.253906 36.667969 L 21.339844 36.667969 L 21.339844 20.847656 L 26.058594 20.847656 L 26.058594 23.007812 L 26.125 23.007812 C 26.78125 21.765625 28.382812 20.453125 30.773438 20.453125 C 35.753906 20.453125 36.671875 23.730469 36.671875 27.988281 Z M 36.671875 36.667969 "/>
</g>
</svg>
