<?xml version="1.0" encoding="UTF-8"?>
<svg xmlns="http://www.w3.org/2000/svg" xmlns:xlink="http://www.w3.org/1999/xlink" viewBox="0 0 50 50" width="50px" height="50px">
<g id="surface13354272">
<path style=" stroke:none;fill-rule:nonzero;fill:rgb(94.509804%,94.509804%,94.509804%);fill-opacity:1;" d="M 14.511719 0 C 6.519531 0 0 6.519531 0 14.511719 L 0 35.488281 C 0 43.480469 6.519531 50 14.511719 50 L 35.488281 50 C 43.480469 50 50 43.480469 50 35.488281 L 50 14.511719 C 50 6.519531 43.480469 0 35.488281 0 Z M 14.511719 3.847656 L 35.488281 3.847656 C 41.398438 3.847656 46.152344 8.59375 46.152344 14.511719 L 46.152344 35.488281 C 46.152344 41.398438 41.40625 46.152344 35.488281 46.152344 L 14.511719 46.152344 C 8.601562 46.152344 3.847656 41.40625 3.847656 35.488281 L 3.847656 14.511719 C 3.847656 8.601562 8.59375 3.847656 14.511719 3.847656 Z M 39.421875 7.691406 C 37.832031 7.691406 36.539062 8.984375 36.539062 10.578125 C 36.539062 12.167969 37.832031 13.460938 39.421875 13.460938 C 41.015625 13.460938 42.308594 12.167969 42.308594 10.578125 C 42.308594 8.984375 41.015625 7.691406 39.421875 7.691406 Z M 25 11.539062 C 17.585938 11.539062 11.539062 17.585938 11.539062 25 C 11.539062 32.414062 17.585938 38.460938 25 38.460938 C 32.414062 38.460938 38.460938 32.414062 38.460938 25 C 38.460938 17.585938 32.414062 11.539062 25 11.539062 Z M 25 15.382812 C 30.332031 15.382812 34.617188 19.667969 34.617188 25 C 34.617188 30.332031 30.332031 34.617188 25 34.617188 C 19.667969 34.617188 15.382812 30.332031 15.382812 25 C 15.382812 19.667969 19.667969 15.382812 25 15.382812 Z M 25 15.382812 "/>
</g>
</svg>
