<?xml version="1.0" encoding="UTF-8"?>
<svg xmlns="http://www.w3.org/2000/svg" xmlns:xlink="http://www.w3.org/1999/xlink" viewBox="0 0 50 50" width="50px" height="50px">
<g id="surface13249416">
<path style=" stroke:none;fill-rule:nonzero;fill:rgb(94.509804%,94.509804%,94.509804%);fill-opacity:1;" d="M 50 8.960938 C 48.128906 9.789062 46.25 10.417969 44.164062 10.628906 C 46.25 9.375 47.917969 7.292969 48.746094 4.996094 C 46.664062 6.25 44.582031 7.082031 42.292969 7.503906 C 40.210938 5.417969 37.5 4.167969 34.585938 4.167969 C 28.957031 4.167969 24.375 8.75 24.375 14.371094 C 24.375 15.210938 24.375 16.039062 24.585938 16.667969 C 16.039062 16.25 8.542969 12.289062 3.539062 6.039062 C 2.5 7.503906 2.082031 9.375 2.082031 11.246094 C 2.082031 14.796875 3.957031 17.921875 6.664062 19.792969 C 4.996094 19.582031 3.335938 19.164062 2.082031 18.539062 C 2.082031 18.539062 2.082031 18.539062 2.082031 18.75 C 2.082031 23.746094 5.625 27.914062 10.207031 28.75 C 9.375 28.957031 8.542969 29.167969 7.503906 29.167969 C 6.875 29.167969 6.25 29.167969 5.625 28.957031 C 6.875 33.121094 10.628906 36.042969 15.210938 36.042969 C 11.667969 38.753906 7.292969 40.414062 2.5 40.414062 C 1.667969 40.414062 0.832031 40.414062 0 40.210938 C 4.582031 43.125 10 44.792969 15.625 44.792969 C 34.585938 44.792969 44.792969 29.167969 44.792969 15.625 C 44.792969 15.210938 44.792969 14.796875 44.792969 14.371094 C 46.875 12.914062 48.542969 11.042969 50 8.960938 "/>
</g>
</svg>
